HIERARCHY
ROOT Hips
{
	OFFSET 0.000000 0.000000 0.000000
	CHANNELS 6 Xposition Yposition Zposition Zrotation Yrotation Xrotation 
	JOINT LHipJoint
	{
		OFFSET 0.000000 0.000000 0.000000
		CHANNELS 3 Zrotation Yrotation Xrotation
		JOINT LeftUpLeg
		{
			OFFSET 1.363060 -1.794630 0.839290
			CHANNELS 3 Zrotation Yrotation Xrotation
			JOINT LeftLeg
			{
				OFFSET 2.448110 -6.726130 0.000000
				CHANNELS 3 Zrotation Yrotation Xrotation
				JOINT LeftFoot
				{
					OFFSET 2.562200 -7.039590 0.000000
					CHANNELS 3 Zrotation Yrotation Xrotation
					JOINT LeftToeBase
					{
						OFFSET 0.157640 -0.433110 2.322550
						CHANNELS 3 Zrotation Yrotation Xrotation
						End Site
						{
							OFFSET 0.000000 0.000000 0.000000
						}
					}
				}
			}
		}
	}
	JOINT RHipJoint
	{
		OFFSET 0.000000 0.000000 0.000000
		CHANNELS 3 Zrotation Yrotation Xrotation
		JOINT RightUpLeg
		{
			OFFSET -1.305520 -1.794630 0.839290
			CHANNELS 3 Zrotation Yrotation Xrotation
			JOINT RightLeg
			{
				OFFSET -2.542530 -6.985550 0.000000
				CHANNELS 3 Zrotation Yrotation Xrotation
				JOINT RightFoot
				{
					OFFSET -2.568260 -7.056230 0.000000
					CHANNELS 3 Zrotation Yrotation Xrotation
					JOINT RightToeBase
					{
						OFFSET -0.164730 -0.452590 2.363150
						CHANNELS 3 Zrotation Yrotation Xrotation
						End Site
						{
							OFFSET 0.000000 0.000000 0.000000
						}
					}
				}
			}
		}
	}
	JOINT LowerBack
	{
		OFFSET 0.000000 0.000000 0.000000
		CHANNELS 3 Zrotation Yrotation Xrotation
		JOINT Spine
		{
			OFFSET 0.028270 2.035590 -0.193380
			CHANNELS 3 Zrotation Yrotation Xrotation
			JOINT Spine1
			{
				OFFSET 0.056720 2.048850 -0.042750
				CHANNELS 3 Zrotation Yrotation Xrotation
				JOINT Neck
				{
					OFFSET 0.000000 0.000000 0.000000
					CHANNELS 3 Zrotation Yrotation Xrotation
					JOINT Neck1
					{
						OFFSET -0.054170 1.746240 0.172020
						CHANNELS 3 Zrotation Yrotation Xrotation
						JOINT Head
						{
							OFFSET 0.104070 1.761360 -0.123970
							CHANNELS 3 Zrotation Yrotation Xrotation
							End Site
							{
								OFFSET 0.000000 0.000000 0.000000
							}
						}
					}
				}
				JOINT LeftShoulder
				{
					OFFSET 0.000000 0.000000 0.000000
					CHANNELS 3 Zrotation Yrotation Xrotation
					JOINT LeftArm
					{
						OFFSET 3.362410 1.200890 -0.311210
						CHANNELS 3 Zrotation Yrotation Xrotation
						JOINT LeftForeArm
						{
							OFFSET 4.983000 -0.000000 -0.000000
							CHANNELS 3 Zrotation Yrotation Xrotation
							JOINT LeftHand
							{
								OFFSET 3.483560 -0.000000 -0.000000
								CHANNELS 3 Zrotation Yrotation Xrotation
								JOINT LeftFingerBase
								{
									OFFSET 0.000000 0.000000 0.000000
									CHANNELS 3 Zrotation Yrotation Xrotation
									JOINT LeftHandIndex1
									{
										OFFSET 0.715260 -0.000000 -0.000000
										CHANNELS 3 Zrotation Yrotation Xrotation
										End Site
										{
											OFFSET 0.000000 0.000000 0.000000
										}
									}
								}
								JOINT LThumb
								{
									OFFSET 0.000000 0.000000 0.000000
									CHANNELS 3 Zrotation Yrotation Xrotation
									End Site
									{
										OFFSET 0.000000 0.000000 0.000000
									}
								}
							}
						}
					}
				}
				JOINT RightShoulder
				{
					OFFSET 0.000000 0.000000 0.000000
					CHANNELS 3 Zrotation Yrotation Xrotation
					JOINT RightArm
					{
						OFFSET -3.136600 1.374050 -0.404650
						CHANNELS 3 Zrotation Yrotation Xrotation
						JOINT RightForeArm
						{
							OFFSET -5.241900 -0.000000 -0.000000
							CHANNELS 3 Zrotation Yrotation Xrotation
							JOINT RightHand
							{
								OFFSET -3.444170 -0.000000 -0.000000
								CHANNELS 3 Zrotation Yrotation Xrotation
								JOINT RightFingerBase
								{
									OFFSET 0.000000 0.000000 0.000000
									CHANNELS 3 Zrotation Yrotation Xrotation
									JOINT RightHandIndex1
									{
										OFFSET -0.622530 -0.000000 -0.000000
										CHANNELS 3 Zrotation Yrotation Xrotation
										End Site
										{
											OFFSET 0.000000 0.000000 0.000000
										}
									}
								}
								JOINT RThumb
								{
									OFFSET 0.000000 0.000000 0.000000
									CHANNELS 3 Zrotation Yrotation Xrotation
									End Site
									{
										OFFSET 0.000000 0.000000 0.000000
									}
								}
							}
						}
					}
				}
			}
		}
	}
}
MOTION
Frames: 4
Frame Time: 0.008333
-5.907924 6.409899 -13.743391 -68.283872 14.093344 -149.842898 8.595514 -28.070362 -143.341234 -64.495892 -69.505397 55.968058 -134.403041 -80.082167 9.090946 35.053821 2.839442 -37.192745 1.459100 -7.634500 -21.609300 66.262537 -59.537781 146.147187 -55.331825 72.034306 47.923074 -0.391784 10.716426 99.129046 155.483297 -26.327700 -71.151504 -0.060300 1.583900 -4.357100 -2.920658 -39.961256 -138.744642 3.827323 -62.196235 34.088553 -18.557312 17.200302 -15.789729 134.284122 5.703348 120.142516 -60.575586 -30.027113 -164.755541 3.125100 -0.022400 11.116300 141.891990 -56.030317 -85.516542 -79.887557 87.071842 -142.611986 -35.533925 42.368661 -25.651214 -4.465169 -42.076332 -10.672430 44.418611 -81.289042 -41.304000 -7.125000 0.000000 0.000000 9.104300 -23.983300 -12.128200 -45.782090 29.966342 95.608124 107.229535 2.951553 -137.177351 -48.575138 -77.847904 4.709236 10.267692 -12.146401 -66.781077 -28.039076 5.598207 -7.794301 7.125000 0.000000 0.000000 2.099300 -11.077200 1.658000 
-5.938587 6.423116 -13.730702 -125.107329 17.124991 -82.905298 -12.983958 33.508319 -90.018686 -114.098847 39.694857 -112.688287 -23.909617 9.353440 94.601710 110.343241 -73.343090 168.757211 1.291400 -7.200300 -20.310300 -172.729786 -45.260978 -105.617690 -60.961026 6.560280 -81.235416 144.554211 29.929945 -20.062541 43.801392 -26.987469 -170.512557 -0.049000 1.428000 -3.927200 -71.811188 23.090993 -156.644024 103.094254 53.587794 70.850131 49.298835 -83.361776 28.461003 -176.447031 40.850822 129.565368 60.222344 -24.236861 -8.946192 3.364300 -0.008700 11.447900 77.266117 -62.477035 37.361266 85.704171 88.094732 117.298586 -19.244101 -89.931446 157.320710 5.491712 -54.386267 -9.716143 -126.065681 -86.757291 138.545103 -7.125000 0.000000 0.000000 9.175200 -24.066700 -12.230900 -168.973767 12.859768 65.666263 140.788147 -80.938763 145.639087 22.001256 71.441465 -166.314109 68.715969 11.383528 -63.993716 17.475455 -62.942545 -7.836887 7.125000 0.000000 0.000000 1.356900 -11.700200 1.053900 
-5.938323 6.428403 -13.717486 -9.676588 -87.849918 160.252814 -50.645410 29.835749 -59.255936 16.762763 14.927101 159.333752 -1.966576 88.729751 34.319201 49.456366 50.180801 -145.225386 1.274200 -7.154300 -20.173200 -83.676329 69.290405 2.949108 84.424024 -38.412929 -21.906164 -95.588347 -69.451492 37.360035 112.213836 83.180776 66.028552 -0.029900 1.116000 -3.068100 -66.921921 65.030372 -24.300667 -106.995726 58.935770 90.020997 178.438035 -27.110123 -137.231416 -46.480338 -50.781888 -142.187444 75.717154 37.934266 -34.588409 3.495900 0.037200 11.533600 37.087797 -19.592217 -97.120408 129.181196 -70.581721 11.171868 106.675847 20.771736 -155.327001 -58.320394 -73.032624 9.642643 -174.747913 -46.671192 138.475000 -7.125000 0.000000 0.000000 9.200300 -24.112800 -12.268700 -131.866121 22.694524 -151.629540 101.224842 26.782773 -32.499287 -36.307224 82.949840 -165.988743 -2.288672 -5.786866 -65.955391 -33.451042 26.420781 -7.888788 7.125000 0.000000 0.000000 1.081900 -11.838900 0.837000 
-5.930128 6.420737 -13.719600 -97.713013 -80.080673 22.780757 -133.671526 39.959876 -16.996894 -35.826400 -52.704070 115.093534 -178.360491 83.811287 12.746579 -107.735741 -67.106409 -89.205232 1.362000 -7.386900 -20.866900 140.694848 -70.506420 41.539164 -121.304217 77.530298 -161.613315 129.001599 62.127672 80.491544 83.628885 34.159708 -144.607369 -0.042000 1.321900 -3.635100 -65.488600 23.877715 -179.176914 -130.446518 -81.020310 -61.852887 104.873808 11.875596 111.771679 43.409132 41.626433 -87.480106 143.159522 -7.292813 64.562638 3.456000 0.061900 11.424600 155.353787 53.387470 -28.894380 -168.482863 -38.281594 103.001042 96.698844 -21.600381 31.664752 -7.298681 33.107814 19.472252 15.652551 -29.927529 -41.548900 -7.125000 0.000000 0.000000 9.188400 -24.148200 -12.255300 20.161164 -87.526256 71.535722 85.431801 78.150976 117.009991 -30.897564 -16.386109 -39.971028 33.541929 24.995720 -105.486667 8.409568 -14.830271 -7.892900 7.125000 0.000000 0.000000 1.094700 -11.818200 0.847400 
